<?xml version="1.0" standalone="no"?>
<!DOCTYPE svg PUBLIC "-//W3C//DTD SVG 20010904//EN"
 "http://www.w3.org/TR/2001/REC-SVG-20010904/DTD/svg10.dtd">
<svg version="1.0" xmlns="http://www.w3.org/2000/svg"
 width="512.000000pt" height="512.000000pt" viewBox="0 0 512.000000 512.000000"
 preserveAspectRatio="xMidYMid meet">

<g transform="translate(0.000000,512.000000) scale(0.100000,-0.100000)"
fill="#000000" stroke="none">
<path d="M1186 4949 c-62 -15 -153 -68 -197 -116 -22 -24 -55 -74 -72 -111
l-32 -67 0 -2096 0 -2095 37 -76 c45 -91 103 -147 196 -191 l67 -32 1503 -3
1503 -2 25 25 24 25 -2 1022 -3 1023 -36 75 c-20 41 -161 309 -315 595 l-279
520 -5 606 -5 605 -37 76 c-45 91 -103 147 -196 191 l-67 32 -1035 2 c-604 1
-1051 -3 -1074 -8z m2114 -173 c49 -26 88 -64 113 -111 19 -35 22 -60 25 -192
l4 -153 -1202 0 -1202 0 4 153 c3 124 7 158 22 187 34 66 87 110 156 131 14 4
480 7 1035 6 964 -2 1012 -3 1045 -21z m-180 -1176 l0 -240 -880 0 -880 0 0
240 0 240 880 0 880 0 0 -240z m710 -914 c123 -230 229 -435 236 -455 10 -28
13 -231 14 -973 l0 -938 -262 0 c-145 0 -292 5 -327 11 -158 25 -287 92 -401
208 -121 124 -181 249 -201 419 -6 48 -14 98 -18 112 -4 14 -124 196 -266 405
-141 209 -266 398 -276 420 -36 77 -20 177 39 245 79 93 212 112 313 46 23
-16 118 -139 280 -362 134 -187 254 -349 266 -362 21 -21 30 -22 173 -22 147
0 152 1 175 25 l25 24 0 812 c0 447 2 810 4 808 2 -2 104 -192 226 -423z
m-710 114 l0 -80 -160 0 -160 0 0 80 0 80 160 0 160 0 0 -80z m-396 -1862 c49
-263 149 -445 320 -580 l48 -38 -938 2 -939 3 -40 22 c-47 25 -85 64 -111 113
-17 31 -19 64 -22 268 l-3 232 840 0 841 0 4 -22z"/>
<path d="M1705 4615 c-50 -49 -15 -135 55 -135 41 0 80 39 80 80 0 41 -39 80
-80 80 -19 0 -40 -9 -55 -25z"/>
<path d="M2105 4615 c-16 -15 -25 -36 -25 -55 0 -19 9 -40 25 -55 l24 -25 311
0 311 0 24 25 c16 15 25 36 25 55 0 19 -9 40 -25 55 l-24 25 -311 0 -311 0
-24 -25z"/>
<path d="M1545 3655 c-16 -15 -25 -36 -25 -55 0 -19 9 -40 25 -55 l24 -25 351
0 351 0 24 25 c16 15 25 36 25 55 0 19 -9 40 -25 55 l-24 25 -351 0 -351 0
-24 -25z"/>
<path d="M2159 867 c-180 -67 -214 -302 -61 -420 46 -35 104 -51 168 -44 82 8
151 56 192 131 23 43 23 169 0 212 -22 41 -72 90 -111 111 -42 21 -143 27
-188 10z m115 -158 c58 -27 55 -115 -5 -139 -63 -26 -125 36 -100 99 19 44 60
60 105 40z"/>
</g>
</svg>
